<svg width="20" height="20" viewBox="0 0 20 20" fill="none" xmlns="http://www.w3.org/2000/svg">
<path d="M9.824 1V13.478M3.94 8.215L8.762 13.037C9.055 13.33 9.439 13.477 9.822 13.477M15.705 8.215L10.883 13.037C10.59 13.33 10.206 13.477 9.823 13.477M18.5 14.265V15.2C18.5 15.6334 18.4146 16.0625 18.2488 16.4629C18.083 16.8632 17.8399 17.227 17.5335 17.5335C17.227 17.8399 16.8632 18.083 16.4629 18.2488C16.0625 18.4146 15.6334 18.5 15.2 18.5H4.3C3.86664 18.5 3.43752 18.4146 3.03714 18.2488C2.63677 18.083 2.27298 17.8399 1.96655 17.5335C1.66011 17.227 1.41704 16.8632 1.2512 16.4629C1.08536 16.0625 1 15.6334 1 15.2V14.265" stroke="black" stroke-width="1.5" stroke-linecap="round" stroke-linejoin="round"/>
</svg>
