<svg width="20" height="18" viewBox="0 0 20 18" fill="none" xmlns="http://www.w3.org/2000/svg">
<path opacity="0.5" d="M7.27148 15.2333L7.27099 15.233C6.99215 15.0138 6.70539 14.7913 6.41071 14.5656C3.56677 12.3739 0.5 9.97524 0.5 5.85206C0.5 3.60763 1.76855 1.71268 3.52036 0.911932C5.20297 0.142817 7.41819 0.348077 9.5 2.41969V16.6369C9.26601 16.5676 9.01669 16.4529 8.74754 16.2956C8.27775 16.0211 7.79514 15.646 7.27148 15.2333Z" stroke="#A2A2A2"/>
<path d="M11.6464 4.56867L11.6468 4.569C11.8815 4.80325 12.1996 4.93467 12.5312 4.93435C12.8628 4.93404 13.1806 4.80202 13.4149 4.56733C13.6491 4.33265 13.7806 4.01452 13.7802 3.68294C13.7799 3.35151 13.648 3.03377 13.4136 2.79956C13.4135 2.79955 13.4135 2.79955 13.4135 2.79954C13.4134 2.79944 13.4133 2.79933 13.4132 2.79923L11.9128 1.29878C13.7165 0.203379 15.516 0.320298 16.9019 1.13139C18.4322 2.02699 19.5 3.79376 19.5 5.85211C19.5 9.97533 16.4332 12.374 13.5892 14.5657C13.2955 14.7912 13.0092 15.013 12.73 15.2312L12.7281 15.2328C12.2047 15.6462 11.7221 16.0215 11.2525 16.2959C10.9834 16.4532 10.734 16.5678 10.5 16.6371V3.42222L11.6464 4.56867Z" stroke="#A2A2A2"/>
</svg>
