<svg width="20" height="18" viewBox="0 0 20 18" fill="none" xmlns="http://www.w3.org/2000/svg">
<path opacity="0.5" fill-rule="evenodd" clip-rule="evenodd" d="M0 5.85206C0 10.2571 3.298 12.7981 6.106 14.9621C6.39933 15.1867 6.68467 15.4081 6.962 15.6261C8 16.4441 9 17.2151 10 17.2151V2.21506C5.5 -2.45894 0 0.989061 0 5.85206Z" fill="#F04037"/>
<path d="M12 4.21511L10 2.21511V17.2151C11 17.2151 12 16.4451 13.038 15.6251C13.316 15.4078 13.6013 15.1868 13.894 14.9621C16.702 12.7981 20 10.2571 20 5.85211C20 1.39011 15.369 -1.88189 11.129 1.22211L13.06 3.15311C13.2008 3.29368 13.2801 3.48443 13.2802 3.68341C13.2804 3.88238 13.2016 4.07328 13.061 4.21411C12.9204 4.35494 12.7297 4.43417 12.5307 4.43435C12.3317 4.43454 12.1408 4.35568 12 4.21511Z" fill="#F04037"/>
</svg>
