<svg width="20" height="20" viewBox="0 0 20 20" fill="none" xmlns="http://www.w3.org/2000/svg">
<path fill-rule="evenodd" clip-rule="evenodd" d="M11.963 0.0571603C12.0999 0.000396583 12.2506 -0.01451 12.3961 0.0143234C12.5415 0.0431568 12.6751 0.114437 12.78 0.21916L19.78 7.21916C19.9205 7.35979 19.9993 7.55041 19.9993 7.74916C19.9993 7.94791 19.9205 8.13854 19.78 8.27916L12.78 15.2792C12.6751 15.3839 12.5415 15.4552 12.3961 15.4841C12.2507 15.513 12.1 15.4982 11.9631 15.4414C11.8261 15.3847 11.709 15.2887 11.6266 15.1655C11.5442 15.0423 11.5001 14.8974 11.5 14.7492V10.9512C6.678 11.2842 2.73 14.7962 1.74 19.4072C1.70418 19.5751 1.61179 19.7257 1.47829 19.8337C1.34478 19.9418 1.17824 20.0007 1.0065 20.0007C0.834762 20.0007 0.668224 19.9418 0.534718 19.8337C0.401213 19.7257 0.308828 19.5751 0.273002 19.4072C0.0910234 18.5579 -0.000487023 17.6917 1.94918e-06 16.8232C1.94918e-06 10.3102 5.083 4.98316 11.5 4.59616V0.75016C11.4999 0.601921 11.5437 0.456977 11.626 0.333635C11.7082 0.210293 11.8251 0.114084 11.962 0.0571603M12.999 2.56016V5.32316C12.999 5.52207 12.92 5.71284 12.7793 5.85349C12.6387 5.99414 12.4479 6.07316 12.249 6.07316C6.694 6.07316 2.123 10.2872 1.557 15.6922C2.6211 13.7914 4.1728 12.2088 6.05219 11.1074C7.93157 10.006 10.0707 9.42562 12.249 9.42616C12.4479 9.42616 12.6387 9.50518 12.7793 9.64583C12.92 9.78648 12.999 9.97725 12.999 10.1762V12.9392L18.188 7.74916L12.999 2.56016Z" fill="black"/>
</svg>
