<svg width="24" height="24" viewBox="0 0 24 24" fill="none" xmlns="http://www.w3.org/2000/svg">
<path d="M16.25 2.75H7.75C6.22582 2.75264 4.76482 3.35929 3.68706 4.43706C2.60929 5.51482 2.00264 6.97582 2 8.5V15.5C2.00264 17.0242 2.60929 18.4852 3.68706 19.5629C4.76482 20.6407 6.22582 21.2474 7.75 21.25H16.25C17.7742 21.2474 19.2352 20.6407 20.3129 19.5629C21.3907 18.4852 21.9974 17.0242 22 15.5V8.5C21.9974 6.97582 21.3907 5.51482 20.3129 4.43706C19.2352 3.35929 17.7742 2.75264 16.25 2.75ZM8 6.1C8.35669 6.09941 8.70906 6.178 9.0317 6.33011C9.35433 6.48221 9.63918 6.70404 9.86569 6.97957C10.0922 7.25511 10.2547 7.5775 10.3415 7.92346C10.4283 8.26943 10.4373 8.63035 10.3677 8.98018C10.2981 9.33002 10.1517 9.66005 9.93911 9.94645C9.72651 10.2329 9.45298 10.4685 9.13827 10.6364C8.82356 10.8043 8.4755 10.9002 8.11922 10.9172C7.76294 10.9343 7.40731 10.8721 7.078 10.735C6.56307 10.5207 6.13842 10.1344 5.87642 9.64207C5.61443 9.1497 5.53133 8.5817 5.64127 8.0349C5.75122 7.48811 6.04742 6.99638 6.47936 6.64354C6.91131 6.2907 7.45226 6.09861 8.01 6.1H8ZM20.5 12.78L18.32 11.09C17.6921 10.6523 16.9302 10.4496 16.1678 10.5172C15.4054 10.5849 14.6911 10.9186 14.15 11.46L11.82 13.79C11.3321 14.262 10.6986 14.5547 10.0229 14.6201C9.34722 14.6854 8.66933 14.5197 8.1 14.15C7.82253 13.9667 7.4914 13.8821 7.16 13.91C6.8272 13.945 6.51653 14.0933 6.28 14.33L3.85 17.17C3.5875 16.5689 3.46771 15.9151 3.5 15.26L5.18 13.31C5.66444 12.8204 6.30257 12.5125 6.98725 12.4378C7.67192 12.3632 8.36143 12.5264 8.94 12.9C9.21662 13.0873 9.55009 13.1719 9.88254 13.139C10.215 13.1061 10.5254 12.9579 10.76 12.72L13.09 10.4C13.8873 9.60533 14.94 9.11825 16.0618 9.02492C17.1836 8.93158 18.3023 9.23801 19.22 9.89L20.5 10.89V12.78Z" fill="url(#paint0_linear_934_13214)"/>
<path d="M8.90984 8.5101C8.90984 8.75144 8.81397 8.98291 8.64331 9.15356C8.47265 9.32422 8.24119 9.4201 7.99984 9.4201C7.7585 9.4201 7.52703 9.32422 7.35638 9.15356C7.18572 8.98291 7.08984 8.75144 7.08984 8.5101C7.08984 8.26875 7.18572 8.03729 7.35638 7.86663C7.52703 7.69597 7.7585 7.6001 7.99984 7.6001C8.24119 7.6001 8.47265 7.69597 8.64331 7.86663C8.81397 8.03729 8.90984 8.26875 8.90984 8.5101Z" fill="#FEDC5A"/>
<defs>
<linearGradient id="paint0_linear_934_13214" x1="12" y1="2.75" x2="12" y2="21.25" gradientUnits="userSpaceOnUse">
<stop stop-color="#FFE455"/>
<stop offset="1" stop-color="#EFCA04"/>
</linearGradient>
</defs>
</svg>
