<svg width="21" height="21" viewBox="0 0 21 21" fill="none" xmlns="http://www.w3.org/2000/svg">
<path d="M18.0222 11.55C18.0722 11.2 18.1222 10.85 18.1222 10.45C18.1222 10.05 18.0722 9.7 18.0222 9.35L20.2722 7.75C20.4722 7.6 20.5722 7.3 20.4222 7.05L18.2222 3.35C18.0722 3.1 17.8222 3 17.5722 3.15L15.0722 4.3C14.4722 3.85 13.8722 3.5 13.1722 3.2L12.9222 0.45C12.8722 0.2 12.6722 0 12.4222 0H8.12222C7.87222 0 7.62222 0.2 7.62222 0.45L7.37222 3.2C6.67222 3.5 6.02222 3.85 5.47222 4.3L2.97222 3.15C2.72222 3.05 2.42222 3.15 2.32222 3.35L0.172222 7.05C0.0222223 7.3 0.122222 7.6 0.322222 7.75L2.57222 9.35C2.52222 9.7 2.47222 10.05 2.47222 10.45C2.47222 10.85 2.52222 11.2 2.57222 11.55L0.222222 13.15C0.0222222 13.3 -0.0777778 13.6 0.0722222 13.85L2.22222 17.55C2.37222 17.8 2.62222 17.9 2.87222 17.75L5.37222 16.6C5.97222 17.05 6.57222 17.4 7.27222 17.7L7.52222 20.45C7.57222 20.7 7.77222 20.9 8.02222 20.9H12.3222C12.5722 20.9 12.8222 20.7 12.8222 20.45L13.0722 17.7C13.7722 17.4 14.4222 17.05 14.9722 16.6L17.4722 17.75C17.7222 17.85 18.0222 17.75 18.1222 17.55L20.2722 13.85C20.4222 13.6 20.3222 13.3 20.1222 13.15L18.0222 11.55ZM10.2222 15.45C7.47222 15.45 5.22222 13.2 5.22222 10.45C5.22222 7.7 7.47222 5.45 10.2222 5.45C12.9722 5.45 15.2222 7.7 15.2222 10.45C15.2222 13.2 12.9722 15.45 10.2222 15.45Z" fill="#607D8B"/>
<path d="M10.2222 4.44995C6.92217 4.44995 4.22217 7.14995 4.22217 10.45C4.22217 13.75 6.92217 16.45 10.2222 16.45C13.5222 16.45 16.2222 13.75 16.2222 10.45C16.2222 7.14995 13.5222 4.44995 10.2222 4.44995ZM10.2222 12.95C8.82217 12.95 7.72217 11.85 7.72217 10.45C7.72217 9.04995 8.82217 7.94995 10.2222 7.94995C11.6222 7.94995 12.7222 9.04995 12.7222 10.45C12.7222 11.85 11.6222 12.95 10.2222 12.95Z" fill="#455A64"/>
</svg>
