<svg width="21" height="21" viewBox="0 0 21 21" fill="none" xmlns="http://www.w3.org/2000/svg">
<path d="M17.4857 11.7698L17.5272 11.4793C17.5776 11.1266 17.6222 10.8097 17.6222 10.45C17.6222 10.0903 17.5776 9.77335 17.5272 9.42071L17.4842 9.11909L17.7325 8.94252L19.974 7.34851C19.9766 7.34623 19.9804 7.34231 19.9842 7.33657C19.9889 7.32933 19.9919 7.32205 19.9934 7.31623C19.9944 7.31225 19.9945 7.30987 19.9944 7.309M17.4857 11.7698L20.2722 7.75C20.4722 7.6 20.5722 7.3 20.4222 7.05L18.2222 3.35M17.4857 11.7698L17.7192 11.9477L19.8192 13.5477L19.8222 13.55C19.8234 13.5509 19.825 13.5523 19.827 13.5544C19.8292 13.5566 19.8316 13.5596 19.8342 13.5634C19.8389 13.5707 19.8419 13.5779 19.8434 13.5838C19.8438 13.5852 19.844 13.5865 19.8442 13.5876C19.8446 13.5904 19.8444 13.5916 19.8444 13.5913C19.8446 13.5902 19.845 13.5902 19.8435 13.5928L19.8434 13.5927L19.8399 13.5988L17.6965 17.2874C17.6907 17.2887 17.684 17.2894 17.6772 17.2892C17.6714 17.2891 17.6666 17.2883 17.663 17.2874L15.1812 16.1458L14.8974 16.0152L14.6556 16.213C14.1551 16.6225 13.5514 16.9506 12.8753 17.2404L12.6013 17.3579L12.5743 17.6547L12.3248 20.3987C12.3227 20.3995 12.3213 20.3999 12.3206 20.4H8.03511C8.03211 20.3968 8.02819 20.3917 8.02426 20.3846C8.02148 20.3795 8.01894 20.3739 8.01681 20.3677L7.77017 17.6547L7.74318 17.3579L7.46918 17.2404C6.80663 16.9565 6.24112 16.6267 5.67222 16.2L5.43391 16.0213L5.16327 16.1458L2.66327 17.2958L2.65515 17.2995C2.65423 17.2981 2.65329 17.2966 2.65234 17.295L0.504535 13.5988L0.504577 13.5988L0.500969 13.5928C0.500457 13.5919 0.500163 13.5913 0.500005 13.591C0.499983 13.5901 0.500048 13.5877 0.501043 13.5838C0.502499 13.5779 0.505497 13.5707 0.510282 13.5634C0.513386 13.5587 0.516447 13.5553 0.518873 13.5529L2.85362 11.9633L3.11128 11.7879L3.0672 11.4793C3.01682 11.1266 2.97222 10.8097 2.97222 10.45C2.97222 10.0903 3.01682 9.77335 3.0672 9.42071L3.11029 9.11909L2.86198 8.94252L0.620416 7.34852C0.617831 7.34624 0.614089 7.34232 0.610282 7.33657C0.605496 7.32934 0.602499 7.32205 0.601043 7.31623C0.60005 7.31226 0.599983 7.30989 0.600005 7.30901C0.600163 7.30868 0.600455 7.3081 0.600969 7.30725L0.601011 7.30727L0.604535 7.30121L2.74791 3.61261C2.75379 3.61135 2.76044 3.61063 2.76721 3.61079C2.77306 3.61093 2.77782 3.61169 2.78149 3.61262L5.26327 4.75425L5.54707 4.88479L5.78884 4.68698C6.2893 4.27752 6.89303 3.94935 7.56918 3.65957L7.84318 3.54214L7.87017 3.24527L8.11962 0.501253C8.12173 0.500476 8.12317 0.500135 8.12383 0.5H12.4093M17.4857 11.7698L12.4093 0.5M19.9944 7.309C19.9944 7.30867 19.9944 7.30856 19.9944 7.30867C19.9945 7.30944 19.9948 7.3097 19.9944 7.309ZM19.9944 7.309C19.9943 7.30866 19.994 7.3081 19.9935 7.30725L19.9925 7.30554L17.7935 3.60725L18.2222 3.35M18.2222 3.35L17.7925 3.60554L17.7932 3.60672M18.2222 3.35C18.0722 3.1 17.8222 3 17.5722 3.15L17.7932 3.60672M17.7932 3.60672C17.7918 3.60455 17.7906 3.60248 17.7893 3.60051M17.7932 3.60672L12.4319 0.548058C12.4308 0.542512 12.4294 0.537227 12.4276 0.532264M17.7893 3.60051L17.806 3.59282L17.8295 3.57875C17.8331 3.57655 17.8349 3.57578 17.8349 3.57578C17.8349 3.57577 17.8329 3.57664 17.8288 3.57755C17.8268 3.57797 17.8245 3.5784 17.8217 3.57875C17.8068 3.58067 17.7905 3.57896 17.7766 3.57434C17.7712 3.57255 17.7675 3.57075 17.7652 3.56951C17.7634 3.56854 17.7626 3.56792 17.7626 3.56792C17.7626 3.56793 17.7631 3.56832 17.7641 3.56923C17.7646 3.56963 17.7651 3.5701 17.7657 3.57067C17.7703 3.57495 17.7788 3.58415 17.7893 3.60051ZM17.7893 3.60051L17.7812 3.60424L15.2812 4.75425L15.0105 4.87874L14.7722 4.7C14.2033 4.27333 13.6378 3.94352 12.9753 3.65957L12.7013 3.54214L12.6743 3.24527L12.4276 0.532264M12.4276 0.532264C12.4255 0.526122 12.423 0.520471 12.4202 0.515422C12.4163 0.508278 12.4123 0.503241 12.4093 0.5M12.4276 0.532264L12.4093 0.5M4.72222 10.45C4.72222 13.4761 7.19608 15.95 10.2222 15.95C13.2484 15.95 15.7222 13.4761 15.7222 10.45C15.7222 7.42386 13.2484 4.95 10.2222 4.95C7.19608 4.95 4.72222 7.42386 4.72222 10.45Z" stroke="black"/>
<path d="M4.72217 10.45C4.72217 7.42609 7.19831 4.94995 10.2222 4.94995C13.246 4.94995 15.7222 7.42609 15.7222 10.45C15.7222 13.4738 13.246 15.95 10.2222 15.95C7.19831 15.95 4.72217 13.4738 4.72217 10.45ZM7.22217 10.45C7.22217 12.1261 8.54603 13.45 10.2222 13.45C11.8983 13.45 13.2222 12.1261 13.2222 10.45C13.2222 8.77381 11.8983 7.44995 10.2222 7.44995C8.54603 7.44995 7.22217 8.77381 7.22217 10.45Z" fill="#455A64" fill-opacity="0.4" stroke="black"/>
</svg>
