<svg width="24" height="24" viewBox="0 0 24 24" fill="none" xmlns="http://www.w3.org/2000/svg">
<path d="M12.53 20.4201H6.21C3.05 20.4201 2 18.3201 2 16.2101V7.79008C2 4.63008 3.05 3.58008 6.21 3.58008H12.53C15.69 3.58008 16.74 4.63008 16.74 7.79008V16.2101C16.74 19.3701 15.68 20.4201 12.53 20.4201Z" fill="url(#paint0_linear_926_5186)"/>
<path d="M19.5202 17.0999L16.7402 15.1499V8.83989L19.5202 6.88989C20.8802 5.93989 22.0002 6.51989 22.0002 8.18989V15.8099C22.0002 17.4799 20.8802 18.0599 19.5202 17.0999Z" fill="url(#paint1_linear_926_5186)"/>
<path d="M11.5 11C12.3284 11 13 10.3284 13 9.5C13 8.67157 12.3284 8 11.5 8C10.6716 8 10 8.67157 10 9.5C10 10.3284 10.6716 11 11.5 11Z" fill="white"/>
<defs>
<linearGradient id="paint0_linear_926_5186" x1="9.37" y1="3.58008" x2="9.37" y2="20.4201" gradientUnits="userSpaceOnUse">
<stop stop-color="#55A0FF"/>
<stop offset="1" stop-color="#006DF5"/>
</linearGradient>
<linearGradient id="paint1_linear_926_5186" x1="19.3702" y1="6.43335" x2="19.3702" y2="17.5634" gradientUnits="userSpaceOnUse">
<stop stop-color="#55A0FF"/>
<stop offset="1" stop-color="#006DF5"/>
</linearGradient>
</defs>
</svg>
